<svg xmlns="http://www.w3.org/2000/svg" xmlns:xlink="http://www.w3.org/1999/xlink" width="500" zoomAndPan="magnify" viewBox="0 0 375 374.999991" height="500" preserveAspectRatio="xMidYMid meet" version="1.0"><defs><g><g id="id1"/><g id="id2"/><g id="id3"/><g id="id4"/><g id="id5"/><g id="id6"/><g id="id7"/><g id="id8"/><g id="id9"/><g id="id10"/><g id="id11"/><g id="id12"/><g id="id13"/><g id="id14"/></g><clipPath id="id15"><path d="M 159 92.011719 L 279.660156 92.011719 L 279.660156 209 L 159 209 Z M 159 92.011719 " clip-rule="nonzero"/></clipPath><clipPath id="id16"><path d="M 95.910156 155 L 217 155 L 217 275.761719 L 95.910156 275.761719 Z M 95.910156 155 " clip-rule="nonzero"/></clipPath></defs><rect x="-37.5" width="450" fill="rgb(100%, 100%, 100%)" y="-37.499999" height="449.999989" fill-opacity="1"/><rect x="-37.5" width="450" fill="rgb(100%, 100%, 100%)" y="-37.499999" height="449.999989" fill-opacity="1"/><rect x="-37.5" width="450" fill="rgb(100%, 100%, 100%)" y="-37.499999" height="449.999989" fill-opacity="1"/><rect x="-37.5" width="450" fill="rgb(100%, 100%, 100%)" y="-37.499999" height="449.999989" fill-opacity="1"/><path fill="rgb(100%, 92.939758%, 84.309387%)" d="M 187.378906 30.628906 C 100.808594 30.628906 30.628906 100.808594 30.628906 187.378906 C 30.628906 273.949219 100.808594 344.128906 187.378906 344.128906 C 273.949219 344.128906 344.128906 273.949219 344.128906 187.378906 C 344.128906 100.808594 273.949219 30.628906 187.378906 30.628906 " fill-opacity="1" fill-rule="nonzero"/><path fill="rgb(100%, 100%, 100%)" d="M 187.578125 70.953125 C 123.167969 70.953125 70.953125 123.167969 70.953125 187.578125 C 70.953125 251.988281 123.167969 304.203125 187.578125 304.203125 C 251.988281 304.203125 304.203125 251.988281 304.203125 187.578125 C 304.203125 123.167969 251.988281 70.953125 187.578125 70.953125 " fill-opacity="1" fill-rule="nonzero"/><g clip-path="url(#id15)"><path fill="rgb(97.648621%, 88.62915%, 78.039551%)" d="M 276.230469 144.746094 C 263.832031 144.746094 253.78125 134.695312 253.78125 122.308594 C 253.78125 122.28125 253.796875 122.257812 253.796875 122.234375 C 251.851562 122.789062 249.824219 123.101562 247.71875 123.101562 C 238.117188 123.101562 229.933594 117.046875 226.730469 108.570312 C 224.378906 109.414062 221.855469 109.894531 219.207031 109.894531 C 208.363281 109.894531 199.332031 102.222656 197.226562 92.011719 C 175 100.863281 159.273438 122.53125 159.273438 147.914062 C 159.273438 181.152344 186.226562 208.105469 219.464844 208.105469 C 252.707031 208.105469 279.660156 181.152344 279.660156 147.914062 C 279.660156 146.75 279.546875 145.625 279.488281 144.484375 C 278.421875 144.632812 277.332031 144.746094 276.230469 144.746094 " fill-opacity="1" fill-rule="nonzero"/></g><g clip-path="url(#id16)"><path fill="rgb(79.60968%, 47.44873%, 18.429565%)" d="M 216.296875 215.570312 C 216.296875 248.808594 189.34375 275.761719 156.105469 275.761719 C 122.863281 275.761719 95.910156 248.808594 95.910156 215.570312 C 95.910156 182.328125 122.863281 155.375 156.105469 155.375 C 189.34375 155.375 216.296875 182.328125 216.296875 215.570312 " fill-opacity="1" fill-rule="nonzero"/></g><path fill="rgb(31.759644%, 21.569824%, 14.118958%)" d="M 156.105469 212.402344 C 156.105469 215.902344 153.269531 218.738281 149.769531 218.738281 C 146.265625 218.738281 143.429688 215.902344 143.429688 212.402344 C 143.429688 208.898438 146.265625 206.066406 149.769531 206.066406 C 153.269531 206.066406 156.105469 208.898438 156.105469 212.402344 " fill-opacity="1" fill-rule="nonzero"/><path fill="rgb(31.759644%, 21.569824%, 14.118958%)" d="M 181.449219 234.578125 C 181.449219 238.078125 178.613281 240.914062 175.113281 240.914062 C 171.609375 240.914062 168.777344 238.078125 168.777344 234.578125 C 168.777344 231.074219 171.609375 228.242188 175.113281 228.242188 C 178.613281 228.242188 181.449219 231.074219 181.449219 234.578125 " fill-opacity="1" fill-rule="nonzero"/><path fill="rgb(31.759644%, 21.569824%, 14.118958%)" d="M 137.09375 247.25 C 137.09375 250.753906 134.261719 253.585938 130.757812 253.585938 C 127.257812 253.585938 124.421875 250.753906 124.421875 247.25 C 124.421875 243.746094 127.257812 240.914062 130.757812 240.914062 C 134.261719 240.914062 137.09375 243.746094 137.09375 247.25 " fill-opacity="1" fill-rule="nonzero"/><path fill="rgb(31.759644%, 21.569824%, 14.118958%)" d="M 178.28125 187.054688 C 178.28125 190.558594 175.445312 193.390625 171.945312 193.390625 C 168.441406 193.390625 165.609375 190.558594 165.609375 187.054688 C 165.609375 183.554688 168.441406 180.71875 171.945312 180.71875 C 175.445312 180.71875 178.28125 183.554688 178.28125 187.054688 " fill-opacity="1" fill-rule="nonzero"/><path fill="rgb(31.759644%, 21.569824%, 14.118958%)" d="M 133.925781 190.222656 C 133.925781 193.726562 131.09375 196.558594 127.589844 196.558594 C 124.089844 196.558594 121.253906 193.726562 121.253906 190.222656 C 121.253906 186.722656 124.089844 183.886719 127.589844 183.886719 C 131.09375 183.886719 133.925781 186.722656 133.925781 190.222656 " fill-opacity="1" fill-rule="nonzero"/><path fill="rgb(97.648621%, 88.62915%, 78.039551%)" d="M 119.015625 224.144531 L 112.679688 217.808594 L 117.160156 213.328125 L 123.496094 219.664062 L 119.015625 224.144531 " fill-opacity="1" fill-rule="nonzero"/><path fill="rgb(97.648621%, 88.62915%, 78.039551%)" d="M 148.839844 239.984375 L 144.359375 235.503906 L 150.695312 229.167969 L 155.175781 233.648438 L 148.839844 239.984375 " fill-opacity="1" fill-rule="nonzero"/><path fill="rgb(31.759644%, 21.569824%, 14.118958%)" d="M 251.148438 154.25 C 251.148438 157.75 248.3125 160.585938 244.8125 160.585938 C 241.308594 160.585938 238.472656 157.75 238.472656 154.25 C 238.472656 150.746094 241.308594 147.914062 244.8125 147.914062 C 248.3125 147.914062 251.148438 150.746094 251.148438 154.25 " fill-opacity="1" fill-rule="nonzero"/><path fill="rgb(31.759644%, 21.569824%, 14.118958%)" d="M 238.472656 182.761719 C 238.472656 186.265625 235.640625 189.097656 232.136719 189.097656 C 228.636719 189.097656 225.800781 186.265625 225.800781 182.761719 C 225.800781 179.257812 228.636719 176.425781 232.136719 176.425781 C 235.640625 176.425781 238.472656 179.257812 238.472656 182.761719 " fill-opacity="1" fill-rule="nonzero"/><path fill="rgb(31.759644%, 21.569824%, 14.118958%)" d="M 219.464844 138.410156 C 219.464844 141.910156 216.632812 144.746094 213.128906 144.746094 C 209.628906 144.746094 206.792969 141.910156 206.792969 138.410156 C 206.792969 134.90625 209.628906 132.070312 213.128906 132.070312 C 216.632812 132.070312 219.464844 134.90625 219.464844 138.410156 " fill-opacity="1" fill-rule="nonzero"/><path fill="rgb(31.759644%, 21.569824%, 14.118958%)" d="M 190.953125 135.238281 C 190.953125 138.742188 188.117188 141.578125 184.617188 141.578125 C 181.113281 141.578125 178.28125 138.742188 178.28125 135.238281 C 178.28125 131.738281 181.113281 128.902344 184.617188 128.902344 C 188.117188 128.902344 190.953125 131.738281 190.953125 135.238281 " fill-opacity="1" fill-rule="nonzero"/><path fill="rgb(79.60968%, 47.44873%, 18.429565%)" d="M 214.058594 165.992188 L 207.722656 159.65625 L 212.203125 155.175781 L 218.539062 161.511719 L 214.058594 165.992188 " fill-opacity="1" fill-rule="nonzero"/><path fill="rgb(79.60968%, 47.44873%, 18.429565%)" d="M 253.386719 178.664062 L 248.90625 174.1875 L 255.242188 167.847656 L 259.722656 172.328125 L 253.386719 178.664062 " fill-opacity="1" fill-rule="nonzero"/><path fill="rgb(97.648621%, 88.62915%, 78.039551%)" d="M 176.039062 217.808594 L 169.703125 211.472656 L 174.183594 206.992188 L 180.519531 213.328125 L 176.039062 217.808594 " fill-opacity="1" fill-rule="nonzero"/><path fill="rgb(97.648621%, 88.62915%, 78.039551%)" d="M 148.839844 182.960938 L 144.359375 178.480469 L 150.695312 172.144531 L 155.175781 176.625 L 148.839844 182.960938 " fill-opacity="1" fill-rule="nonzero"/><path fill="rgb(97.648621%, 88.62915%, 78.039551%)" d="M 163.367188 262.164062 L 157.03125 255.824219 L 161.511719 251.347656 L 167.847656 257.683594 L 163.367188 262.164062 " fill-opacity="1" fill-rule="nonzero"/><path fill="rgb(97.648621%, 88.62915%, 78.039551%)" d="M 199.527344 208.304688 L 195.050781 203.824219 L 201.386719 197.488281 L 205.867188 201.96875 L 199.527344 208.304688 " fill-opacity="1" fill-rule="nonzero"/><path fill="rgb(97.648621%, 88.62915%, 78.039551%)" d="M 198.21875 230.480469 L 191.882812 224.144531 L 196.359375 219.664062 L 202.695312 226 L 198.21875 230.480469 " fill-opacity="1" fill-rule="nonzero"/><path fill="rgb(79.60968%, 47.44873%, 18.429565%)" d="M 199.527344 124.808594 L 195.050781 120.328125 L 201.386719 113.992188 L 205.867188 118.472656 L 199.527344 124.808594 " fill-opacity="1" fill-rule="nonzero"/><path fill="rgb(79.60968%, 47.44873%, 18.429565%)" d="M 231.210938 143.816406 L 226.730469 139.335938 L 233.066406 133 L 237.546875 137.480469 L 231.210938 143.816406 " fill-opacity="1" fill-rule="nonzero"/><g fill="rgb(79.60968%, 47.44873%, 18.429565%)" fill-opacity="1"><g transform="translate(72.291797, 132.024856)"><g><path d="M -15.0625 -10.21875 L -12.890625 -14.265625 L -0.734375 -7.75 L 2.0625 -12.984375 L 5.859375 -10.953125 L 0.890625 -1.671875 Z M -15.0625 -10.21875 "/></g></g></g><g fill="rgb(79.60968%, 47.44873%, 18.429565%)" fill-opacity="1"><g transform="translate(80.078738, 117.617979)"><g><path d="M -10.421875 -16.75 L -8.328125 -19.5625 L 10.546875 -14.203125 L 7.609375 -10.25 L 4.9375 -11.125 L 1.375 -6.328125 L 2.96875 -3.984375 L 0.078125 -0.109375 Z M 1.125 -12.34375 L -3.9375 -14 L -0.921875 -9.59375 Z M 1.125 -12.34375 "/></g></g></g><g fill="rgb(79.60968%, 47.44873%, 18.429565%)" fill-opacity="1"><g transform="translate(99.370461, 94.118378)"><g><path d="M 7.453125 -5.609375 C 6.609375 -4.910156 5.707031 -4.410156 4.75 -4.109375 C 3.789062 -3.816406 2.835938 -3.722656 1.890625 -3.828125 C 0.941406 -3.929688 0.0195312 -4.222656 -0.875 -4.703125 C -1.769531 -5.179688 -2.570312 -5.851562 -3.28125 -6.71875 L -10.15625 -15.078125 L -6.609375 -18 L 0.265625 -9.640625 C 0.910156 -8.859375 1.632812 -8.40625 2.4375 -8.28125 C 3.25 -8.164062 4.015625 -8.40625 4.734375 -9 C 5.421875 -9.5625 5.785156 -10.253906 5.828125 -11.078125 C 5.878906 -11.898438 5.582031 -12.703125 4.9375 -13.484375 L -1.9375 -21.84375 L 1.515625 -24.703125 L 8.390625 -16.34375 C 9.097656 -15.476562 9.601562 -14.5625 9.90625 -13.59375 C 10.21875 -12.625 10.332031 -11.664062 10.25 -10.71875 C 10.175781 -9.78125 9.90625 -8.867188 9.4375 -7.984375 C 8.96875 -7.097656 8.304688 -6.304688 7.453125 -5.609375 Z M 7.453125 -5.609375 "/></g></g></g><g fill="rgb(79.60968%, 47.44873%, 18.429565%)" fill-opacity="1"><g transform="translate(116.415488, 80.636033)"><g><path d="M -7.671875 -16.5 L -3.734375 -18.859375 L 3.34375 -7.03125 L 8.4375 -10.078125 L 10.65625 -6.375 L 1.625 -0.96875 Z M -7.671875 -16.5 "/></g></g></g><g fill="rgb(79.60968%, 47.44873%, 18.429565%)" fill-opacity="1"><g transform="translate(130.595834, 72.324432)"><g><path d="M -0.390625 -14.78125 L -5 -12.828125 L -6.6875 -16.8125 L 6.734375 -22.5 L 8.421875 -18.515625 L 3.8125 -16.578125 L 9.1875 -3.90625 L 4.984375 -2.109375 Z M -0.390625 -14.78125 "/></g></g></g><g fill="rgb(79.60968%, 47.44873%, 18.429565%)" fill-opacity="1"><g transform="translate(147.983468, 65.393998)"><g><path d="M -3.203125 -17.921875 L 1.21875 -19.1875 L 6.234375 -1.796875 L 1.8125 -0.53125 Z M -3.203125 -17.921875 "/></g></g></g><g fill="rgb(79.60968%, 47.44873%, 18.429565%)" fill-opacity="1"><g transform="translate(158.97357, 61.886927)"><g><path d="M -0.546875 -18.453125 L 2.125 -18.8125 L 10.375 -10.390625 L 16.046875 -20.65625 L 18.71875 -21.015625 L 21.140625 -2.8125 L 16.59375 -2.203125 L 15.375 -11.359375 L 11.96875 -5.265625 L 10.09375 -5.015625 L 5.203125 -10.015625 L 6.421875 -0.859375 L 1.875 -0.25 Z M -0.546875 -18.453125 "/></g></g></g><g fill="rgb(79.60968%, 47.44873%, 18.429565%)" fill-opacity="1"><g transform="translate(184.881344, 58.958274)"><g><path d="M 8.171875 -17.953125 L 11.6875 -17.765625 L 17.65625 0.921875 L 12.75 0.65625 L 12 -2.0625 L 6.015625 -2.359375 L 4.96875 0.265625 L 0.140625 0 Z M 10.890625 -5.890625 L 9.46875 -11.015625 L 7.46875 -6.0625 Z M 10.890625 -5.890625 "/></g></g></g><g fill="rgb(79.60968%, 47.44873%, 18.429565%)" fill-opacity="1"><g transform="translate(215.057483, 61.804506)"><g><path d="M 7.4375 -16.890625 L 10.015625 -16.0625 L 13.84375 -4.921875 L 23.359375 -11.75 L 25.9375 -10.921875 L 20.296875 6.546875 L 15.921875 5.140625 L 18.75 -3.640625 L 13.078125 0.390625 L 11.28125 -0.1875 L 9 -6.796875 L 6.171875 1.984375 L 1.796875 0.578125 Z M 7.4375 -16.890625 "/></g></g></g><g fill="rgb(79.60968%, 47.44873%, 18.429565%)" fill-opacity="1"><g transform="translate(239.847335, 70.620875)"><g><path d="M 9.734375 -15.359375 L 13.859375 -13.3125 L 5.8125 2.890625 L 1.6875 0.84375 Z M 9.734375 -15.359375 "/></g></g></g><g fill="rgb(79.60968%, 47.44873%, 18.429565%)" fill-opacity="1"><g transform="translate(250.322954, 75.656744)"><g><path d="M 8.015625 5.9375 C 6.921875 5.195312 6.046875 4.3125 5.390625 3.28125 C 4.742188 2.257812 4.316406 1.175781 4.109375 0.03125 C 3.898438 -1.113281 3.925781 -2.289062 4.1875 -3.5 C 4.445312 -4.707031 4.953125 -5.863281 5.703125 -6.96875 C 6.460938 -8.101562 7.363281 -9.015625 8.40625 -9.703125 C 9.445312 -10.398438 10.5625 -10.859375 11.75 -11.078125 C 12.945312 -11.304688 14.160156 -11.296875 15.390625 -11.046875 C 16.617188 -10.796875 17.789062 -10.289062 18.90625 -9.53125 C 20.15625 -8.6875 21.125 -7.679688 21.8125 -6.515625 C 22.5 -5.347656 22.910156 -4.109375 23.046875 -2.796875 L 18.625 -2.078125 C 18.320312 -3.679688 17.585938 -4.878906 16.421875 -5.671875 C 15.847656 -6.054688 15.253906 -6.3125 14.640625 -6.4375 C 14.023438 -6.5625 13.421875 -6.5625 12.828125 -6.4375 C 12.234375 -6.3125 11.671875 -6.0625 11.140625 -5.6875 C 10.609375 -5.3125 10.140625 -4.828125 9.734375 -4.234375 C 9.316406 -3.617188 9.03125 -2.992188 8.875 -2.359375 C 8.726562 -1.722656 8.707031 -1.097656 8.8125 -0.484375 C 8.914062 0.117188 9.148438 0.691406 9.515625 1.234375 C 9.878906 1.785156 10.359375 2.269531 10.953125 2.6875 C 11.859375 3.289062 12.828125 3.601562 13.859375 3.625 L 15.15625 1.703125 L 12.8125 0.109375 L 14.78125 -2.796875 L 20.9375 1.375 L 16.59375 7.78125 C 15.195312 8.09375 13.753906 8.09375 12.265625 7.78125 C 10.785156 7.46875 9.367188 6.851562 8.015625 5.9375 Z M 8.015625 5.9375 "/></g></g></g><g fill="rgb(79.60968%, 47.44873%, 18.429565%)" fill-opacity="1"><g transform="translate(268.584933, 88.410703)"><g><path d="M 17.9375 -8.234375 L 20.46875 -5.8125 L 12.765625 12.25 L 9.203125 8.84375 L 10.40625 6.296875 L 6.09375 2.15625 L 3.578125 3.4375 L 0.09375 0.09375 Z M 12.09375 2.671875 L 14.375 -2.140625 L 9.625 0.296875 Z M 12.09375 2.671875 "/></g></g></g><g fill="rgb(79.60968%, 47.44873%, 18.429565%)" fill-opacity="1"><g transform="translate(283.416773, 103.186831)"><g><path d="M 2.890625 4.421875 C 2.128906 3.441406 1.675781 2.410156 1.53125 1.328125 C 1.382812 0.242188 1.550781 -0.773438 2.03125 -1.734375 L 6.21875 -0.8125 C 5.75 0.21875 5.773438 1.066406 6.296875 1.734375 C 6.679688 2.234375 7.148438 2.503906 7.703125 2.546875 C 8.253906 2.597656 8.804688 2.414062 9.359375 2 L 15.34375 -2.625 L 12.625 -6.171875 L 16.0625 -8.8125 L 21.578125 -1.640625 L 12.265625 5.53125 C 11.484375 6.132812 10.664062 6.5625 9.8125 6.8125 C 8.957031 7.0625 8.117188 7.132812 7.296875 7.03125 C 6.472656 6.9375 5.679688 6.664062 4.921875 6.21875 C 4.160156 5.78125 3.484375 5.179688 2.890625 4.421875 Z M 2.890625 4.421875 "/></g></g></g><g fill="rgb(79.60968%, 47.44873%, 18.429565%)" fill-opacity="1"><g transform="translate(293.60047, 116.512083)"><g><path d="M 19.546875 -2.625 L 21.265625 0.453125 L 8.609375 15.453125 L 6.21875 11.15625 L 8.109375 9.078125 L 5.203125 3.84375 L 2.421875 4.34375 L 0.0625 0.125 Z M 10.796875 6.09375 L 14.375 2.171875 L 9.125 3.109375 Z M 10.796875 6.09375 "/></g></g></g></svg>